<svg width="29" height="29" viewBox="0 0 29 29" fill="none" xmlns="http://www.w3.org/2000/svg">
<g clip-path="url(#clip0_1_2550)">
<path fill-rule="evenodd" clip-rule="evenodd" d="M5.10592 14.4997C5.10608 12.7035 5.62452 10.9456 6.599 9.43679C7.57349 7.92798 8.96264 6.73241 10.5998 5.99352C12.2369 5.25464 14.0524 5.00383 15.8286 5.27119C17.6047 5.53856 19.2659 6.31274 20.613 7.50083C21.96 8.68893 22.9357 10.2405 23.4228 11.9693C23.9099 13.6981 23.8878 15.5308 23.3592 17.2474C22.8306 18.964 21.8179 20.4916 20.4427 21.6469C19.0674 22.8022 17.388 23.5362 15.6059 23.7607V16.833H17.9393C18.2487 16.833 18.5454 16.7101 18.7642 16.4913C18.983 16.2725 19.1059 15.9758 19.1059 15.6663C19.1059 15.3569 18.983 15.0602 18.7642 14.8414C18.5454 14.6226 18.2487 14.4997 17.9393 14.4997H15.6059V12.1663C15.6059 11.8569 15.7288 11.5602 15.9476 11.3414C16.1664 11.1226 16.4632 10.9997 16.7726 10.9997H17.3559C17.6653 10.9997 17.9621 10.8768 18.1809 10.658C18.3997 10.4392 18.5226 10.1424 18.5226 9.83301C18.5226 9.52359 18.3997 9.22684 18.1809 9.00805C17.9621 8.78926 17.6653 8.66634 17.3559 8.66634H16.7726C15.8443 8.66634 14.9541 9.03509 14.2977 9.69147C13.6413 10.3478 13.2726 11.2381 13.2726 12.1663V14.4997H10.9392C10.6298 14.4997 10.3331 14.6226 10.1143 14.8414C9.8955 15.0602 9.77258 15.3569 9.77258 15.6663C9.77258 15.9758 9.8955 16.2725 10.1143 16.4913C10.3331 16.7101 10.6298 16.833 10.9392 16.833H13.2726V23.7607C11.0171 23.4763 8.94287 22.3785 7.43925 20.6734C5.93563 18.9683 5.10596 16.7731 5.10592 14.4997ZM14.4393 26.1663C20.8828 26.1663 26.1059 20.9432 26.1059 14.4997C26.1059 8.05618 20.8828 2.83301 14.4393 2.83301C7.99575 2.83301 2.77258 8.05618 2.77258 14.4997C2.77258 20.9432 7.99575 26.1663 14.4393 26.1663Z" fill="black"/>
</g>
<defs>
<clipPath id="clip0_1_2550">
<rect width="28" height="28" fill="white" transform="translate(0.439209 0.5)"/>
</clipPath>
</defs>
</svg>
