<svg width="29" height="29" viewBox="0 0 29 29" fill="none" xmlns="http://www.w3.org/2000/svg">
<g clip-path="url(#clip0_1_2556)">
<path fill-rule="evenodd" clip-rule="evenodd" d="M18.9804 4C20.5275 4 22.0112 4.61458 23.1052 5.70854C24.1991 6.80251 24.8137 8.28624 24.8137 9.83333V19.1667C24.8137 20.7138 24.1991 22.1975 23.1052 23.2915C22.0112 24.3854 20.5275 25 18.9804 25H9.64705C8.09996 25 6.61623 24.3854 5.52226 23.2915C4.4283 22.1975 3.81372 20.7138 3.81372 19.1667V9.83333C3.81372 8.28624 4.4283 6.80251 5.52226 5.70854C6.61623 4.61458 8.09996 4 9.64705 4H18.9804ZM18.9804 6.33333H9.64705C8.7188 6.33333 7.82856 6.70208 7.17218 7.35846C6.5158 8.01484 6.14705 8.90508 6.14705 9.83333V19.1667C6.14705 20.0949 6.5158 20.9852 7.17218 21.6415C7.82856 22.2979 8.7188 22.6667 9.64705 22.6667H18.9804C19.9086 22.6667 20.7989 22.2979 21.4553 21.6415C22.1116 20.9852 22.4804 20.0949 22.4804 19.1667V9.83333C22.4804 8.90508 22.1116 8.01484 21.4553 7.35846C20.7989 6.70208 19.9086 6.33333 18.9804 6.33333ZM14.3137 9.83333C15.5514 9.83333 16.7384 10.325 17.6136 11.2002C18.4887 12.0753 18.9804 13.2623 18.9804 14.5C18.9804 15.7377 18.4887 16.9247 17.6136 17.7998C16.7384 18.675 15.5514 19.1667 14.3137 19.1667C13.076 19.1667 11.8891 18.675 11.0139 17.7998C10.1387 16.9247 9.64705 15.7377 9.64705 14.5C9.64705 13.2623 10.1387 12.0753 11.0139 11.2002C11.8891 10.325 13.076 9.83333 14.3137 9.83333ZM14.3137 12.1667C13.6949 12.1667 13.1014 12.4125 12.6638 12.8501C12.2262 13.2877 11.9804 13.8812 11.9804 14.5C11.9804 15.1188 12.2262 15.7123 12.6638 16.1499C13.1014 16.5875 13.6949 16.8333 14.3137 16.8333C14.9326 16.8333 15.5261 16.5875 15.9636 16.1499C16.4012 15.7123 16.6471 15.1188 16.6471 14.5C16.6471 13.8812 16.4012 13.2877 15.9636 12.8501C15.5261 12.4125 14.9326 12.1667 14.3137 12.1667ZM19.5637 8.08333C19.8731 8.08333 20.1699 8.20625 20.3887 8.42504C20.6075 8.64383 20.7304 8.94058 20.7304 9.25C20.7304 9.55942 20.6075 9.85616 20.3887 10.075C20.1699 10.2937 19.8731 10.4167 19.5637 10.4167C19.2543 10.4167 18.9576 10.2937 18.7388 10.075C18.52 9.85616 18.3971 9.55942 18.3971 9.25C18.3971 8.94058 18.52 8.64383 18.7388 8.42504C18.9576 8.20625 19.2543 8.08333 19.5637 8.08333Z" fill="black"/>
</g>
<defs>
<clipPath id="clip0_1_2556">
<rect width="28" height="28" fill="white" transform="translate(0.313721 0.5)"/>
</clipPath>
</defs>
</svg>
