<svg width="29" height="29" viewBox="0 0 29 29" fill="none" xmlns="http://www.w3.org/2000/svg">
<g clip-path="url(#clip0_1_2562)">
<path d="M21.1882 4C22.1165 4 23.0067 4.36875 23.6631 5.02513C24.3195 5.6815 24.6882 6.57174 24.6882 7.5V21.5C24.6882 22.4283 24.3195 23.3185 23.6631 23.9749C23.0067 24.6313 22.1165 25 21.1882 25H7.18823C6.25997 25 5.36974 24.6313 4.71336 23.9749C4.05698 23.3185 3.68823 22.4283 3.68823 21.5V7.5C3.68823 6.57174 4.05698 5.6815 4.71336 5.02513C5.36974 4.36875 6.25997 4 7.18823 4H21.1882ZM21.1882 6.33333H7.18823C6.87881 6.33333 6.58207 6.45625 6.36327 6.67504C6.14448 6.89383 6.02157 7.19058 6.02157 7.5V21.5C6.02157 21.8094 6.14448 22.1062 6.36327 22.325C6.58207 22.5438 6.87881 22.6667 7.18823 22.6667H21.1882C21.4977 22.6667 21.7944 22.5438 22.0132 22.325C22.232 22.1062 22.3549 21.8094 22.3549 21.5V7.5C22.3549 7.19058 22.232 6.89383 22.0132 6.67504C21.7944 6.45625 21.4977 6.33333 21.1882 6.33333ZM9.52157 12.1667C9.80732 12.1667 10.0831 12.2716 10.2967 12.4615C10.5102 12.6514 10.6466 12.913 10.6801 13.1968L10.6882 13.3333V19.1667C10.6879 19.464 10.574 19.75 10.3699 19.9663C10.1658 20.1825 9.88679 20.3126 9.58994 20.33C9.29309 20.3475 9.00079 20.2509 8.77276 20.06C8.54473 19.8692 8.39819 19.5984 8.36307 19.3032L8.3549 19.1667V13.3333C8.3549 13.0239 8.47782 12.7272 8.69661 12.5084C8.9154 12.2896 9.21215 12.1667 9.52157 12.1667ZM13.0216 11C13.2948 11 13.5594 11.0958 13.7692 11.2709C13.979 11.4459 14.1207 11.689 14.1696 11.9578C14.4043 11.8217 14.647 11.6998 14.8964 11.5927C15.6746 11.2602 16.8401 11.077 17.8924 11.4072C18.4442 11.5822 18.9984 11.9088 19.4091 12.4653C19.7766 12.9612 19.9749 13.5643 20.0146 14.2422L20.0216 14.5V19.1667C20.0212 19.464 19.9074 19.75 19.7032 19.9663C19.4991 20.1825 19.2201 20.3126 18.9233 20.33C18.6264 20.3475 18.3341 20.2509 18.1061 20.06C17.8781 19.8692 17.7315 19.5984 17.6964 19.3032L17.6882 19.1667V14.5C17.6882 14.115 17.5949 13.9353 17.5342 13.8525C17.4472 13.7442 17.3272 13.6672 17.1924 13.6332C16.7864 13.5048 16.2019 13.5725 15.8134 13.7382C15.2301 13.9878 14.6957 14.3798 14.3317 14.7427L14.1882 14.8967V19.1667C14.1879 19.464 14.074 19.75 13.8699 19.9663C13.6658 20.1825 13.3868 20.3126 13.0899 20.33C12.7931 20.3475 12.5008 20.2509 12.2728 20.06C12.0447 19.8692 11.8982 19.5984 11.8631 19.3032L11.8549 19.1667V12.1667C11.8549 11.8572 11.9778 11.5605 12.1966 11.3417C12.4154 11.1229 12.7121 11 13.0216 11ZM9.52157 8.66667C9.83098 8.66667 10.1277 8.78958 10.3465 9.00838C10.5653 9.22717 10.6882 9.52391 10.6882 9.83333C10.6882 10.1428 10.5653 10.4395 10.3465 10.6583C10.1277 10.8771 9.83098 11 9.52157 11C9.21215 11 8.9154 10.8771 8.69661 10.6583C8.47782 10.4395 8.3549 10.1428 8.3549 9.83333C8.3549 9.52391 8.47782 9.22717 8.69661 9.00838C8.9154 8.78958 9.21215 8.66667 9.52157 8.66667Z" fill="black"/>
</g>
<defs>
<clipPath id="clip0_1_2562">
<rect width="28" height="28" fill="white" transform="translate(0.188232 0.5)"/>
</clipPath>
</defs>
</svg>
