<svg width="29" height="29" viewBox="0 0 29 29" fill="none" xmlns="http://www.w3.org/2000/svg">
<g clip-path="url(#clip0_1_2568)">
<path d="M14.0628 5.16699C15.0603 5.16699 16.0835 5.19266 17.0751 5.23466L18.2465 5.29066L19.3676 5.35716L20.4176 5.42833L21.3766 5.50299C22.4173 5.58265 23.3966 6.02676 24.1422 6.7572C24.8878 7.48765 25.3519 8.45762 25.453 9.49649L25.4996 9.99232L25.5871 11.054C25.6688 12.1542 25.7295 13.3535 25.7295 14.5003C25.7295 15.6472 25.6688 16.8465 25.5871 17.9467L25.4996 19.0083C25.4845 19.1787 25.4693 19.3432 25.453 19.5042C25.3519 20.5432 24.8876 21.5133 24.1418 22.2438C23.396 22.9743 22.4164 23.4183 21.3755 23.4977L20.4188 23.5712L19.3688 23.6435L18.2465 23.71L17.0751 23.766C16.0716 23.8096 15.0673 23.8322 14.0628 23.8337C13.0583 23.8322 12.054 23.8096 11.0505 23.766L9.87912 23.71L8.75795 23.6435L7.70795 23.5712L6.74895 23.4977C5.70823 23.418 4.72893 22.9739 3.98334 22.2434C3.23774 21.513 2.77362 20.543 2.67262 19.5042L2.62595 19.0083L2.53845 17.9467C2.44925 16.8 2.40177 15.6504 2.39612 14.5003C2.39612 13.3535 2.45678 12.1542 2.53845 11.054L2.62595 9.99232C2.64112 9.82199 2.65628 9.65749 2.67262 9.49649C2.77358 8.45781 3.23754 7.48798 3.98289 6.75756C4.72825 6.02714 5.70727 5.58291 6.74779 5.50299L7.70562 5.42833L8.75562 5.35716L9.87795 5.29066L11.0493 5.23466C12.0532 5.19106 13.0579 5.1685 14.0628 5.16699ZM14.0628 7.50033C13.1003 7.50033 12.1098 7.52599 11.1461 7.56566L10.0051 7.62049L8.90962 7.68466L7.88062 7.75466L6.93795 7.82816C6.4425 7.86331 5.9755 8.07275 5.61973 8.41934C5.26395 8.76593 5.04238 9.2273 4.99429 9.72166C4.85779 11.1322 4.72945 12.888 4.72945 14.5003C4.72945 16.1127 4.85779 17.8685 4.99429 19.279C5.09345 20.2963 5.90079 21.0873 6.93795 21.1725L7.88062 21.2448L8.90962 21.3148L10.0051 21.3802L11.1461 21.435C12.1098 21.4747 13.1003 21.5003 14.0628 21.5003C15.0253 21.5003 16.0158 21.4747 16.9795 21.435L18.1205 21.3802L19.216 21.316L20.245 21.246L21.1876 21.1725C21.6831 21.1373 22.1501 20.9279 22.5058 20.5813C22.8616 20.2347 23.0832 19.7734 23.1313 19.279C23.2678 17.8685 23.3961 16.1127 23.3961 14.5003C23.3961 12.888 23.2678 11.1322 23.1313 9.72166C23.0832 9.2273 22.8616 8.76593 22.5058 8.41934C22.1501 8.07275 21.6831 7.86331 21.1876 7.82816L20.245 7.75583L19.216 7.68583L18.1205 7.62049L16.9795 7.56566C16.0078 7.52385 15.0354 7.50207 14.0628 7.50033ZM11.7295 11.6712C11.7294 11.5571 11.7572 11.4448 11.8104 11.344C11.8636 11.2431 11.9407 11.1568 12.0348 11.0925C12.129 11.0283 12.2375 10.9879 12.3508 10.9751C12.4641 10.9623 12.5788 10.9774 12.685 11.019L12.7795 11.0657L17.6795 13.8937C17.777 13.95 17.8596 14.029 17.9201 14.124C17.9806 14.219 18.0173 14.3273 18.027 14.4395C18.0367 14.5517 18.0192 14.6646 17.976 14.7687C17.9328 14.8727 17.865 14.9647 17.7786 15.037L17.6795 15.107L12.7795 17.9362C12.6807 17.9933 12.5695 18.0255 12.4555 18.0299C12.3414 18.0342 12.2281 18.0107 12.1253 17.9612C12.0224 17.9118 11.9332 17.8379 11.8655 17.7461C11.7977 17.6543 11.7534 17.5473 11.7365 17.4345L11.7295 17.3295V11.6712Z" fill="black"/>
</g>
<defs>
<clipPath id="clip0_1_2568">
<rect width="28" height="28" fill="white" transform="translate(0.0627441 0.5)"/>
</clipPath>
</defs>
</svg>
